<?xml version="1.0" encoding="UTF-8" standalone="no"?>
<!DOCTYPE svg PUBLIC "-//W3C//DTD SVG 1.1//EN" "http://www.w3.org/Graphics/SVG/1.1/DTD/svg11.dtd">
<svg width="165" height="33" viewBox="0 0 165 33" version="1.1" xmlns="http://www.w3.org/2000/svg" xmlns:xlink="http://www.w3.org/1999/xlink" xml:space="preserve" xmlns:serif="http://www.serif.com/" style="fill-rule:evenodd;clip-rule:evenodd;stroke-linejoin:round;stroke-miterlimit:2;">
    <g transform="matrix(1.52987,0,0,0.997446,-0.142924,0.123427)">
        <path d="M107.946,3.345L107.946,29.492C107.946,31.406 106.932,32.961 105.684,32.961L2.37,32.961C1.122,32.961 0.109,31.406 0.109,29.492L0.109,3.345C0.109,1.431 1.122,-0.124 2.37,-0.124L105.684,-0.124C106.932,-0.124 107.946,1.431 107.946,3.345Z" style="fill:white;fill-opacity:0.9;"/>
    </g>
    <g id="logo" transform="matrix(0.867899,0,0,0.867899,66.0106,2.14238)">
        <path id="Fill-1" d="M15.2,0.4C18,0.3 21.3,0.9 21.9,2.8C22.9,6 17.8,10.7 13.4,13C12.3,13.6 11.7,13.7 11.4,13.7C11.1,13.7 11.1,13.4 11.2,13.2C11.4,12.9 12.1,12.2 13,11.4C18,7.5 19.6,4.6 18.7,3.5C18.1,2.8 15.6,2.2 12.9,2.2C12.2,2.2 10.3,2.4 10.1,1.7C10,1.2 12.5,0.5 15.2,0.4" style="fill:rgb(0,83,134);"/>
        <path id="Fill-3" d="M9.4,15.2C11.8,15.1 14.7,15.5 16.3,16.7C17.1,17.3 17.7,18.5 17.3,19.8C16.4,23.5 12.9,28 5.1,31.4C2.6,32.5 0.7,32.9 0.3,32.6C-0.1,32.3 1.1,29.8 1.5,29C2.7,26.4 4.3,23.8 5.8,21.5C6.4,20.6 7.2,19.1 8,19.3C8.7,19.4 7.9,21 7.3,22C6.4,23.7 3.9,28.4 4.7,28.7C6.5,29.3 15,22.8 13.8,19.2C13.2,17.5 9.5,17.4 7.2,17.4C6.1,17.4 3.8,17.7 3.7,16.8C3.6,16.1 7.2,15.3 9.4,15.2" style="fill:rgb(0,83,134);"/>
        <path id="Fill-5" d="M27.8,11.2C29.2,11.5 30.4,11.7 30.7,12.3C31,13 29.4,13 28.7,13C24.9,13.1 22.7,13.1 22.5,14.4C22.4,16 24.1,17.7 25.8,20C27.4,22.1 29.2,24.2 28.7,26.2C28.1,28.6 25.1,29.2 22.2,29.2C19.5,29.2 16.9,28.8 15.8,28.6C14.4,28.3 14.7,27.7 15,27.5C15.4,27.3 17.7,27.3 19.3,27.2C20.6,27 24.4,27 25,26C25.7,24.8 23.9,22.8 22.3,20.6C20.3,17.9 18,15.2 19.2,13.1C20.8,10.6 25.3,10.7 27.8,11.2" style="fill:rgb(0,83,134);"/>
        <path id="Fill-6" d="M86.6,18.5C89.6,18.5 90.8,17.5 91.3,15.1L92,11.4C92,11.2 91.9,11.1 91.7,11.1L90.2,11.1L89.8,13.2L89.6,14.3L89.4,15.3C89.1,16.7 88.3,17.3 86.8,17.3C85.2,17.3 84.7,16.7 85,15.3C85,15.3 85.1,15 85.1,14.9L85.4,13.2L85.8,11.1L84.3,11.1C84.1,11.1 83.9,11.2 83.9,11.4L83.2,15.1C82.7,17.7 84,18.5 86.6,18.5ZM35.1,22.6C34.9,23.6 35.7,24.1 37.3,25.1C39.1,26.2 39.5,26.3 39.3,26.9C39.2,27.4 38.7,27.4 37.9,27.4L34.7,27.4C34.3,27.4 34.1,27.5 34.1,27.9L34,28.5L38,28.5C39.8,28.5 41,28.4 41.4,27.3C41.6,26.8 41.6,26.2 41.1,25.6C40.8,25.3 40.5,25.1 40,24.8C37.7,23.5 37.1,23.4 37.2,22.7C37.3,22.3 37.5,22.3 38.4,22.3L41.1,22.3C41.5,22.3 41.7,22.2 41.7,21.8L41.8,21.1L38.4,21.1C36.6,21.2 35.4,21.2 35.1,22.6ZM52.9,22.6C52.7,23.6 53.5,24.1 55.1,25.1C56.9,26.2 57.3,26.3 57.1,26.9C57,27.4 56.5,27.4 55.7,27.4L52.5,27.4C52.1,27.4 51.9,27.5 51.9,27.9L51.8,28.6L55.8,28.6C57.6,28.6 58.8,28.5 59.2,27.4C59.4,26.9 59.4,26.3 58.9,25.7C58.6,25.4 58.3,25.2 57.8,24.9C55.5,23.6 54.9,23.5 55,22.8C55.1,22.4 55.3,22.4 56.2,22.4L58.9,22.4C59.3,22.4 59.5,22.3 59.5,21.9L59.6,21.2L56.2,21.2C54.3,21.2 53.2,21.2 52.9,22.6ZM97.8,22.6C97.6,23.6 98.4,24.1 100,25.1C101.8,26.2 102.2,26.3 102,26.9C101.9,27.4 101.4,27.4 100.6,27.4L97.4,27.4C97,27.4 96.8,27.5 96.8,27.9L96.7,28.6L100.7,28.6C102.5,28.6 103.7,28.5 104.1,27.4C104.3,26.9 104.3,26.3 103.8,25.7C103.5,25.4 103.2,25.2 102.7,24.9C100.4,23.6 99.8,23.5 99.9,22.8C100,22.4 100.2,22.4 101.1,22.4L103.8,22.4C104.2,22.4 104.4,22.3 104.4,21.9L104.5,21.2L101.1,21.2C99.2,21.2 98.1,21.2 97.8,22.6ZM71.3,17.1C71.5,16.6 71.5,16 71,15.4C70.7,15.1 70.4,14.9 69.9,14.6C67.6,13.3 67,13.2 67.1,12.5C67.2,12.1 67.4,12.1 68.3,12.1L71,12.1C71.4,12.1 71.6,12 71.6,11.6L71.7,10.9L68.3,10.9C66.4,10.9 65.2,10.9 64.9,12.3C64.7,13.3 65.5,13.8 67.1,14.8C68.9,15.9 69.3,16 69.1,16.6C69,17.1 68.5,17.1 67.7,17.1L64.5,17.1C64.1,17.1 63.9,17.2 63.9,17.6L63.8,18.3L67.8,18.3C69.7,18.4 70.8,18.2 71.3,17.1ZM62.7,17.1C62.9,16.6 62.9,16 62.4,15.4C62.1,15.1 61.8,14.9 61.3,14.6C59,13.3 58.4,13.2 58.5,12.5C58.6,12.1 58.8,12.1 59.7,12.1L62.4,12.1C62.8,12.1 63,12 63,11.6L63.1,10.9L59.7,10.9C57.8,10.9 56.6,10.9 56.3,12.3C56.1,13.3 56.9,13.8 58.5,14.8C60.3,15.9 60.7,16 60.5,16.6C60.4,17.1 59.9,17.1 59.1,17.1L56,17.1C55.6,17.1 55.4,17.2 55.4,17.6L55.3,18.3L59.3,18.3C61.1,18.4 62.3,18.2 62.7,17.1ZM100.1,11C99.7,11 99.5,11.1 99.5,11.4L99.4,12.1L102.3,12.1L101.1,18.3L102.4,18.3C102.8,18.3 103,18.2 103,17.8L104.1,12.1L106.5,12.1C106.8,12.1 107,11.9 107,11.7L107.1,11L100.1,11ZM37.3,13.1C37.1,13.1 37,13.2 37,13.3L36,18.3L40.3,18.3C42.7,18.3 44.4,17.4 44.9,14.6C45.3,12.5 44.4,11 41.9,11L36.7,11L36.7,11.1C36.6,11.6 36.6,12.1 37.5,12.1L41.3,12.1C43.1,12.1 43.4,13 43,14.6C42.6,16.2 42,17 40.6,17.1L38,17.1L38.8,12.9L37.3,12.9L37.3,13.1ZM99.1,17.7C99.2,17.4 99,17.3 98.8,17.3L94.9,17.3L96.1,11.4C96.1,11.3 96,11.2 95.9,11.2L94.3,11.2L92.9,18.5L99.1,18.5L99.1,17.7ZM87.4,21.2L85.7,21.2L82.5,24L80.4,21.1L78.7,21.1C78.4,21.1 78.3,21.3 78.2,21.6L76.9,28.4L78.3,28.4C78.6,28.4 78.8,28.3 78.8,28L79.8,22.9L81.4,25.2C81.4,25.3 81.6,25.4 81.8,25.4L82.5,25.4C82.7,25.4 82.9,25.3 83,25.2L85.5,22.9L84.5,28C84.4,28.3 84.6,28.4 84.9,28.4L86.3,28.4L87.6,21.6C87.7,21.4 87.6,21.2 87.4,21.2ZM69.8,21.7L68.5,28.5L75.3,28.5L75.4,27.8C75.5,27.5 75.4,27.4 75,27.4L70.5,27.4L70.9,25.4L74.9,25.4C75,25.4 75.1,25.3 75.1,25.2L75.3,24.4C75.3,24.3 75.3,24.2 75.2,24.2L71.2,24.2L71.6,22.2L75.9,22.2C76.1,22.2 76.3,22.2 76.4,21.9L76.6,21L70.5,21C70.1,21.2 69.9,21.3 69.8,21.7ZM89.9,21.7L88.6,28.5L95.4,28.5L95.5,27.8C95.6,27.5 95.5,27.4 95.1,27.4L90.6,27.4L91,25.4L95,25.4C95.1,25.4 95.2,25.3 95.2,25.2L95.4,24.4C95.4,24.3 95.4,24.2 95.3,24.2L91.3,24.2L91.7,22.2L96,22.2C96.2,22.2 96.4,22.2 96.5,21.9L96.7,21L90.6,21C90.2,21.2 90,21.3 89.9,21.7ZM49.3,21.4L48.7,24.7C47.6,25 44.6,25.7 45.1,23.3L45.5,21.1L44,21.1C43.8,21.1 43.7,21.2 43.7,21.3L43.3,23.3C42.6,27.1 46.2,26.6 48.5,25.9L48,28.5L49.3,28.5C49.7,28.5 49.9,28.4 49.9,28L51.2,21.2L49.6,21.2C49.5,21.2 49.4,21.3 49.3,21.4ZM68.7,21.9L68.8,21.2L61.8,21.2C61.4,21.2 61.2,21.3 61.2,21.6L61,22.3L63.9,22.3L62.7,28.5L64,28.5C64.4,28.5 64.6,28.4 64.6,28L65.7,22.3L68.1,22.3C68.5,22.3 68.6,22.2 68.7,21.9ZM48.5,14.1C48.8,12.7 49.6,12.2 51.1,12.2C52.7,12.2 53.1,12.8 52.8,14.1C52.8,14.1 52.7,14.4 52.7,14.5C52.7,14.7 52.6,15 52.2,15L48.3,15L48.5,14.1ZM46.3,18.4L47.7,18.4L48.1,16.3L52.4,16.3L52,18.4L53.4,18.4C53.6,18.4 53.8,18.3 53.8,18.1L54.5,14.4C55,11.6 53.4,11 51.3,11C48.7,11 47.3,11.6 46.7,14.4L46,18C46,18.3 46.1,18.4 46.3,18.4ZM75.4,14.1C75.7,12.7 76.5,12.2 78,12.2C79.6,12.2 80,12.8 79.7,14.1C79.7,14.1 79.6,14.4 79.6,14.5C79.6,14.7 79.5,15 79.1,15L75.2,15L75.4,14.1ZM73.2,18.4L74.6,18.4L75,16.3L79.3,16.3L78.9,18.4L80.3,18.4C80.5,18.4 80.7,18.3 80.7,18.1L81.4,14.4C81.9,11.6 80.3,11 78.2,11C75.6,11 74.2,11.6 73.6,14.4L72.9,18C72.9,18.3 73,18.4 73.2,18.4Z" style="fill:rgb(0,83,134);"/>
    </g>
    <g transform="matrix(1.10317,0,0,1.10317,5.73537,21.2429)">
        <g id="made-by" serif:id="made by">
            <g>
                <path d="M2.361,0L0.787,0L0.787,-6.104C1.108,-6.214 1.514,-6.32 2.005,-6.422C2.496,-6.523 3.004,-6.574 3.528,-6.574C4.053,-6.574 4.514,-6.504 4.911,-6.365C5.309,-6.225 5.618,-5.992 5.838,-5.667C6.058,-5.341 6.168,-4.894 6.168,-4.328L6.168,0L4.594,0L4.594,-4.125C4.594,-4.421 4.548,-4.649 4.455,-4.81C4.361,-4.971 4.232,-5.085 4.067,-5.153C3.902,-5.22 3.71,-5.254 3.49,-5.254C3.321,-5.254 3.126,-5.241 2.906,-5.216C2.686,-5.191 2.504,-5.157 2.361,-5.114L2.361,0ZM6.016,-4.988L4.848,-5.939C5.051,-6.049 5.286,-6.151 5.552,-6.244C5.819,-6.337 6.104,-6.415 6.409,-6.479C6.714,-6.542 7.022,-6.574 7.335,-6.574C7.86,-6.574 8.321,-6.504 8.719,-6.365C9.116,-6.225 9.425,-5.992 9.645,-5.667C9.865,-5.341 9.975,-4.894 9.975,-4.328L9.975,0L8.401,0L8.401,-4.125C8.401,-4.421 8.353,-4.649 8.255,-4.81C8.158,-4.971 8.025,-5.085 7.856,-5.153C7.687,-5.22 7.492,-5.254 7.272,-5.254C7.044,-5.254 6.817,-5.233 6.593,-5.191C6.369,-5.148 6.176,-5.081 6.016,-4.988Z" style="fill:rgb(0,83,134);fill-rule:nonzero;"/>
                <path d="M14.81,-1.117L14.81,-2.741C14.633,-2.767 14.459,-2.786 14.29,-2.798C14.121,-2.811 13.956,-2.817 13.795,-2.817C13.406,-2.817 13.101,-2.748 12.881,-2.608C12.661,-2.468 12.551,-2.234 12.551,-1.904C12.551,-1.574 12.657,-1.339 12.869,-1.199C13.08,-1.06 13.368,-0.99 13.732,-0.99C13.926,-0.99 14.115,-1.003 14.296,-1.028C14.478,-1.053 14.65,-1.083 14.81,-1.117ZM11.638,-5.102L11.549,-6.333C11.828,-6.4 12.15,-6.458 12.513,-6.504C12.877,-6.551 13.232,-6.574 13.579,-6.574C14.129,-6.574 14.614,-6.506 15.032,-6.371C15.451,-6.236 15.777,-6.018 16.01,-5.717C16.242,-5.417 16.359,-5.021 16.359,-4.531L16.359,-0.241C16.13,-0.173 15.866,-0.108 15.566,-0.044C15.265,0.019 14.952,0.07 14.626,0.108C14.301,0.146 13.981,0.165 13.668,0.165C13.152,0.165 12.695,0.099 12.298,-0.032C11.9,-0.163 11.591,-0.385 11.371,-0.698C11.151,-1.011 11.041,-1.438 11.041,-1.98C11.041,-2.462 11.153,-2.845 11.377,-3.128C11.602,-3.412 11.9,-3.613 12.272,-3.731C12.644,-3.85 13.051,-3.909 13.491,-3.909C13.711,-3.909 13.93,-3.9 14.15,-3.883C14.37,-3.867 14.59,-3.837 14.81,-3.795L14.81,-4.391C14.81,-4.746 14.7,-4.992 14.48,-5.127C14.26,-5.263 13.926,-5.33 13.478,-5.33C13.182,-5.33 12.869,-5.307 12.539,-5.26C12.209,-5.214 11.908,-5.161 11.638,-5.102Z" style="fill:rgb(0,83,134);fill-rule:nonzero;"/>
                <path d="M23.428,-9.264L23.428,-0.317C23.021,-0.182 22.571,-0.068 22.076,0.025C21.581,0.118 21.097,0.165 20.623,0.165C20.005,0.165 19.466,0.053 19.005,-0.171C18.544,-0.396 18.186,-0.751 17.932,-1.237C17.679,-1.724 17.552,-2.356 17.552,-3.135C17.552,-3.981 17.674,-4.655 17.92,-5.159C18.165,-5.662 18.506,-6.024 18.941,-6.244C19.377,-6.464 19.878,-6.574 20.445,-6.574C20.657,-6.574 20.894,-6.559 21.156,-6.53C21.418,-6.5 21.655,-6.464 21.867,-6.422L21.867,-9.264L23.428,-9.264ZM21.867,-1.307L21.867,-5.089C21.63,-5.14 21.414,-5.18 21.219,-5.21C21.025,-5.239 20.826,-5.254 20.623,-5.254C20.107,-5.254 19.728,-5.095 19.487,-4.778C19.246,-4.461 19.125,-3.922 19.125,-3.16C19.125,-2.652 19.185,-2.255 19.303,-1.967C19.421,-1.679 19.593,-1.474 19.817,-1.352C20.041,-1.229 20.318,-1.168 20.648,-1.168C20.851,-1.168 21.059,-1.18 21.27,-1.206C21.482,-1.231 21.68,-1.265 21.867,-1.307Z" style="fill:rgb(0,83,134);fill-rule:nonzero;"/>
                <path d="M30.395,-2.703L26.27,-2.703C26.287,-2.17 26.446,-1.789 26.746,-1.561C27.047,-1.333 27.539,-1.218 28.225,-1.218C28.419,-1.218 28.633,-1.229 28.866,-1.25C29.098,-1.271 29.325,-1.301 29.545,-1.339C29.765,-1.377 29.955,-1.417 30.116,-1.459L30.268,-0.127C29.955,-0.042 29.6,0.027 29.202,0.082C28.804,0.137 28.398,0.165 27.984,0.165C27.324,0.165 26.744,0.053 26.245,-0.171C25.746,-0.396 25.359,-0.753 25.084,-1.244C24.809,-1.734 24.671,-2.386 24.671,-3.198C24.671,-4.01 24.792,-4.664 25.033,-5.159C25.274,-5.654 25.621,-6.013 26.074,-6.238C26.526,-6.462 27.061,-6.574 27.679,-6.574C28.322,-6.574 28.842,-6.453 29.24,-6.212C29.638,-5.971 29.93,-5.635 30.116,-5.203C30.302,-4.772 30.395,-4.268 30.395,-3.693L30.395,-2.703ZM26.27,-3.82L28.897,-3.82C28.897,-4.302 28.804,-4.675 28.618,-4.937C28.432,-5.199 28.098,-5.33 27.616,-5.33C27.142,-5.33 26.803,-5.195 26.6,-4.924C26.397,-4.653 26.287,-4.285 26.27,-3.82Z" style="fill:rgb(0,83,134);fill-rule:nonzero;"/>
                <path d="M34.849,-9.264L36.41,-9.264L36.41,-6.422C36.622,-6.464 36.859,-6.5 37.121,-6.53C37.383,-6.559 37.62,-6.574 37.832,-6.574C38.399,-6.574 38.898,-6.464 39.329,-6.244C39.761,-6.024 40.099,-5.662 40.345,-5.159C40.59,-4.655 40.713,-3.981 40.713,-3.135C40.713,-2.356 40.586,-1.724 40.332,-1.237C40.078,-0.751 39.723,-0.396 39.266,-0.171C38.809,0.053 38.268,0.165 37.642,0.165C37.176,0.165 36.696,0.118 36.201,0.025C35.706,-0.068 35.256,-0.182 34.849,-0.317L34.849,-9.264ZM36.41,-1.307C36.588,-1.265 36.785,-1.231 37.001,-1.206C37.216,-1.18 37.422,-1.168 37.616,-1.168C37.955,-1.168 38.236,-1.229 38.46,-1.352C38.684,-1.474 38.853,-1.679 38.968,-1.967C39.082,-2.255 39.139,-2.652 39.139,-3.16C39.139,-3.922 39.021,-4.461 38.784,-4.778C38.547,-5.095 38.17,-5.254 37.654,-5.254C37.443,-5.254 37.242,-5.239 37.051,-5.21C36.861,-5.18 36.647,-5.14 36.41,-5.089L36.41,-1.307Z" style="fill:rgb(0,83,134);fill-rule:nonzero;"/>
                <path d="M45.827,0.114L45.827,-0.076C45.641,-0.042 45.451,-0.017 45.256,0C45.062,0.017 44.867,0.025 44.672,0.025C44.122,0.025 43.638,-0.044 43.219,-0.184C42.8,-0.324 42.475,-0.554 42.242,-0.876C42.009,-1.197 41.893,-1.641 41.893,-2.208L41.893,-6.422L43.467,-6.422L43.467,-2.424C43.467,-2.136 43.52,-1.91 43.625,-1.745C43.731,-1.58 43.879,-1.464 44.069,-1.396C44.26,-1.328 44.473,-1.294 44.71,-1.294C44.888,-1.294 45.081,-1.309 45.288,-1.339C45.495,-1.369 45.671,-1.4 45.815,-1.434L45.815,-6.422L47.388,-6.422L47.388,-0.127C47.388,0.567 47.257,1.106 46.995,1.491C46.732,1.876 46.371,2.147 45.91,2.303C45.449,2.46 44.909,2.538 44.292,2.538C44.021,2.538 43.75,2.521 43.479,2.487C43.209,2.454 42.957,2.413 42.724,2.367C42.492,2.32 42.291,2.272 42.121,2.221L42.261,1.003C42.43,1.053 42.623,1.1 42.838,1.142C43.054,1.184 43.283,1.22 43.524,1.25C43.765,1.28 44,1.294 44.228,1.294C44.753,1.294 45.15,1.204 45.421,1.022C45.692,0.84 45.827,0.537 45.827,0.114Z" style="fill:rgb(0,83,134);fill-rule:nonzero;"/>
            </g>
        </g>
    </g>
</svg>
